<?xml version="1.0" encoding="UTF-8" standalone="no"?>
<!DOCTYPE svg PUBLIC "-//W3C//DTD SVG 1.1//EN" "http://www.w3.org/Graphics/SVG/1.1/DTD/svg11.dtd">
<svg width="100%" height="100%" viewBox="0 0 16 16" version="1.1" xmlns="http://www.w3.org/2000/svg" xmlns:xlink="http://www.w3.org/1999/xlink" xml:space="preserve" xmlns:serif="http://www.serif.com/" style="fill-rule:evenodd;clip-rule:evenodd;stroke-linejoin:round;stroke-miterlimit:2;">
    <path d="M7.998,0.003C12.413,0.003 15.997,3.587 15.997,8.002C15.997,12.416 12.413,16 7.998,16C3.584,16 0,12.416 0,8.002C0,3.587 3.584,0.003 7.998,0.003ZM11.019,1.813L6.535,7.604C6.521,7.621 6.514,7.642 6.514,7.664C6.512,7.915 6.503,9.487 6.501,9.901C6.5,9.956 6.544,10.001 6.599,10.001C6.859,10.004 7.548,10.012 7.737,10.014C7.768,10.015 7.796,10.029 7.815,10.053L11.019,14.19C10.112,14.644 9.084,14.895 7.998,14.895C6.765,14.895 5.607,14.571 4.609,13.999L8.104,14.017C8.143,14.017 8.177,13.996 8.194,13.961C8.211,13.927 8.207,13.886 8.184,13.856C7.768,13.315 6.439,11.586 6.221,11.303C6.202,11.278 6.173,11.263 6.141,11.263C5.962,11.265 5.345,11.268 5.101,11.27C5.074,11.27 5.048,11.26 5.03,11.241C5.011,11.222 5,11.197 5,11.17L5,1.802C5.901,1.355 6.921,1.108 7.998,1.108C9.084,1.108 10.112,1.359 11.019,1.813ZM13.198,3.486C14.256,4.694 14.892,6.274 14.892,8.002C14.892,9.729 14.256,11.309 13.198,12.517L9.748,8.063C9.721,8.027 9.721,7.976 9.748,7.94L13.198,3.486ZM2,4.613L2,11.39C1.428,10.39 1.105,9.233 1.105,8.002C1.105,6.77 1.428,5.613 2,4.613Z" style="fill:rgb(224,78,146);"/>
</svg>
